<svg id="Layer_1" data-name="Layer 1" xmlns="http://www.w3.org/2000/svg" viewBox="0 0 17.62 31.98"><defs><style>.cls-1{fill:#fff;}.cls-1,.cls-2,.cls-3{stroke:#fff;stroke-miterlimit:10;}.cls-2,.cls-3{fill:#fff;}.cls-3{stroke-width:0.25px;}</style></defs><title>eigth_note</title><line class="cls-1" x1="9.07" y1="28.14" x2="9.07" y2="0.01"/><ellipse class="cls-2" cx="8.98" cy="34.37" rx="4.34" ry="3.3" transform="translate(-9.66 -4.29) rotate(-9.41)"/><path class="cls-1" d="M16.75,6.77" transform="translate(-4.16 -6.22)"/><path class="cls-3" d="M13.61,6.24A8,8,0,0,0,14.94,12c.92,1.17,1.7,1.22,3.09,2.58a12.52,12.52,0,0,1,3.1,5.1c1,3.1.4,5.83-.11,8.27a23.69,23.69,0,0,1-1.12,3.73c2.09-7,1-13.38-2.8-15.87a7.28,7.28,0,0,0-3.49-1.16Z" transform="translate(-4.16 -6.22)"/></svg>