<svg width="36" height="36" viewBox="0 0 36 36" fill="current" xmlns="http://www.w3.org/2000/svg">
<path d="M32.6975 22.1059C32.7659 21.5934 32.8 21.0638 32.8 20.5C32.8 19.9534 32.7659 19.4067 32.6804 18.8942L36.1484 16.195C36.4559 15.9559 36.5413 15.4946 36.3534 15.153L33.0734 9.48129C32.8684 9.10545 32.4413 8.98587 32.0654 9.10545L27.9825 10.7455C27.1284 10.0963 26.2229 9.54962 25.215 9.13962L24.6 4.80045C24.5317 4.39045 24.19 4.10004 23.78 4.10004H17.22C16.81 4.10004 16.4854 4.39045 16.4171 4.80045L15.8021 9.13962C14.7942 9.54962 13.8717 10.1134 13.0346 10.7455L8.95169 9.10545C8.57586 8.96879 8.14877 9.10545 7.94377 9.48129L4.68086 15.153C4.47586 15.5117 4.54419 15.9559 4.88586 16.195L8.35377 18.8942C8.26836 19.4067 8.20003 19.9705 8.20003 20.5C8.20003 21.0296 8.23419 21.5934 8.31961 22.1059L4.85169 24.805C4.54419 25.0442 4.45877 25.5055 4.64669 25.8471L7.92669 31.5188C8.13169 31.8946 8.55877 32.0142 8.93461 31.8946L13.0175 30.2546C13.8717 30.9038 14.7771 31.4505 15.785 31.8605L16.4 36.1996C16.4854 36.6096 16.81 36.9 17.22 36.9H23.78C24.19 36.9 24.5317 36.6096 24.5829 36.1996L25.1979 31.8605C26.2059 31.4505 27.1284 30.9038 27.9654 30.2546L32.0484 31.8946C32.4242 32.0313 32.8513 31.8946 33.0563 31.5188L36.3363 25.8471C36.5413 25.4713 36.4559 25.0442 36.1313 24.805L32.6975 22.1059ZM20.5 26.65C17.1175 26.65 14.35 23.8825 14.35 20.5C14.35 17.1175 17.1175 14.35 20.5 14.35C23.8825 14.35 26.65 17.1175 26.65 20.5C26.65 23.8825 23.8825 26.65 20.5 26.65Z" fill="current"/>
</svg>
