<?xml version="1.0" encoding="utf-8"?>
<!-- Generator: Adobe Illustrator 23.0.3, SVG Export Plug-In . SVG Version: 6.00 Build 0)  -->
<svg version="1.1" id="Layer_1" xmlns="http://www.w3.org/2000/svg" xmlns:xlink="http://www.w3.org/1999/xlink" x="0px" y="0px"
	 viewBox="0 0 17.6 34.7" style="enable-background:new 0 0 17.6 34.7;" xml:space="preserve">
<style type="text/css">
	.st0{fill:none;stroke:#FFFFFF;stroke-miterlimit:10;}
	.st1{fill:#FFFFFF;stroke:#FFFFFF;stroke-miterlimit:10;}
	.st2{fill:#FFFFFF;stroke:#FFFFFF;stroke-width:0.25;stroke-miterlimit:10;}
</style>
<title>sixteenth_note</title>
<g>
	<line class="st0" x1="9.1" y1="30.8" x2="9.1" y2="2.7"/>
	<ellipse transform="matrix(0.9865 -0.1635 0.1635 0.9865 -4.9741 1.2025)" class="st1" cx="4.8" cy="30.8" rx="4.3" ry="3.3"/>
	<path class="st1" d="M12.6,3.2"/>
	<path class="st2" d="M9.4,2.1c-0.3,2,0.2,4.1,1.3,5.8c0.9,1.2,1.7,1.2,3.1,2.6c1.4,1.4,2.5,3.2,3.1,5.1c0.6,2.1,0.7,4.3,0.2,6.5
		c-0.1,0.7-0.3,1.5-0.4,1.8c-0.2,1.3-0.6,2.5-1.1,3.7c0.7-2.3,1-4.6,1-7c-0.1-1.5-0.3-6.6-3.8-8.9c-1.1-0.7-2.2-1.1-3.5-1.2L9.4,2.1
		z"/>
</g>
<g>
	<path class="st2" d="M9.4,7.7c-0.3,2,0.2,4.1,1.3,5.8c0.9,1.2,1.7,1.2,3.1,2.6c1.4,1.4,2.5,3.2,3.1,5.1c1,3.1,0.4,5.8-0.1,8.3
		c-0.3,1.3-0.6,2.5-1.1,3.7c2.1-7,1-13.4-2.8-15.9c-1-0.7-2.2-1.1-3.5-1.2L9.4,7.7z"/>
</g>
</svg>
