<svg width="31" height="36" viewBox="0 0 31 36" fill="current" xmlns="http://www.w3.org/2000/svg">
<path d="M14.5 0.989563L8.64046 2.56123L0.935874 31.3637C0.884624 31.62 0.833374 31.8933 0.833374 32.1666C0.833374 34.0629 2.35379 35.5833 4.25004 35.5833H24.75C26.6463 35.5833 28.1667 34.0629 28.1667 32.1666C28.1667 31.8933 28.1155 31.62 28.0642 31.3637L25.7409 22.6341L23.0417 25.3333L23.3834 27.0416H16.9088L21.7605 22.19L19.3517 19.7812L12.0913 27.0416H5.61671L11.5788 4.83331H17.4213L19.9155 14.1096L22.7 11.3079L20.3596 2.56123L14.5 0.989563ZM13.2188 6.54165V23.1979L15.7813 20.6354V6.54165H13.2188ZM27.808 11.325L22.9734 16.1596L21.7605 14.9466L19.3517 17.3725L24.1692 22.19L26.595 19.7812L25.3821 18.5683L30.2167 13.7337L27.808 11.325Z" fill="current"/>
</svg>
